<svg xmlns="http://www.w3.org/2000/svg" xmlns:xlink="http://www.w3.org/1999/xlink" width="1920" zoomAndPan="magnify" viewBox="0 0 1440 809.999993" height="1080" preserveAspectRatio="xMidYMid meet" version="1.0"><defs><g/><clipPath id="e6bd166122"><rect x="0" width="524" y="0" height="428"/></clipPath><clipPath id="650b006418"><path d="M 448.824219 198.460938 L 551.4375 198.460938 L 551.4375 301.074219 L 448.824219 301.074219 Z M 448.824219 198.460938 " clip-rule="nonzero"/></clipPath><clipPath id="e83a623cd2"><path d="M 500.128906 198.460938 C 471.792969 198.460938 448.824219 221.433594 448.824219 249.769531 C 448.824219 278.105469 471.792969 301.074219 500.128906 301.074219 C 528.464844 301.074219 551.4375 278.105469 551.4375 249.769531 C 551.4375 221.433594 528.464844 198.460938 500.128906 198.460938 Z M 500.128906 198.460938 " clip-rule="nonzero"/></clipPath><clipPath id="d4dc70bcf3"><path d="M 0.824219 0.460938 L 103.4375 0.460938 L 103.4375 103.074219 L 0.824219 103.074219 Z M 0.824219 0.460938 " clip-rule="nonzero"/></clipPath><clipPath id="c6b6c6b9c6"><path d="M 52.128906 0.460938 C 23.792969 0.460938 0.824219 23.433594 0.824219 51.769531 C 0.824219 80.105469 23.792969 103.074219 52.128906 103.074219 C 80.464844 103.074219 103.4375 80.105469 103.4375 51.769531 C 103.4375 23.433594 80.464844 0.460938 52.128906 0.460938 Z M 52.128906 0.460938 " clip-rule="nonzero"/></clipPath><clipPath id="af7c178cc1"><rect x="0" width="104" y="0" height="104"/></clipPath><clipPath id="50f95dcd13"><path d="M 17 0.28125 L 246 0.28125 L 246 284 L 17 284 Z M 17 0.28125 " clip-rule="nonzero"/></clipPath><clipPath id="9b2ff38e18"><rect x="0" width="746" y="0" height="416"/></clipPath></defs><rect x="-144" width="1728" fill="#ffffff" y="-80.999999" height="971.999992" fill-opacity="1"/><rect x="-144" width="1728" fill="#000000" y="-80.999999" height="971.999992" fill-opacity="1"/><g transform="matrix(1, 0, 0, 1, 101, 208)"><g clip-path="url(#e6bd166122)"><g fill="#ffffff" fill-opacity="1"><g transform="translate(0.564957, 294.597184)"><g><path d="M 135.71875 -188.265625 C 123.582031 -187.710938 112.894531 -185.019531 103.65625 -180.1875 C 94.414062 -175.363281 86.691406 -169.019531 80.484375 -161.15625 C 74.273438 -153.300781 69.582031 -144.203125 66.40625 -133.859375 C 63.238281 -123.515625 61.65625 -112.550781 61.65625 -100.96875 C 61.65625 -85.789062 64.34375 -72.890625 69.71875 -62.265625 C 75.101562 -51.648438 82.273438 -43.03125 91.234375 -36.40625 C 100.203125 -29.789062 110.335938 -24.960938 121.640625 -21.921875 C 132.953125 -18.890625 144.40625 -17.375 156 -17.375 C 162.894531 -17.375 170.34375 -18.34375 178.34375 -20.28125 L 178.34375 -146.484375 C 178.34375 -153.097656 177.789062 -159.09375 176.6875 -164.46875 C 175.582031 -169.851562 173.441406 -174.335938 170.265625 -177.921875 C 167.097656 -181.515625 162.753906 -184.207031 157.234375 -186 C 151.722656 -187.789062 144.550781 -188.546875 135.71875 -188.265625 Z M 220.546875 -283.03125 L 220.546875 -46.34375 C 220.546875 -40 220.890625 -34.34375 221.578125 -29.375 C 222.265625 -24.414062 223.503906 -20.070312 225.296875 -16.34375 C 227.097656 -12.625 229.582031 -9.660156 232.75 -7.453125 C 235.925781 -5.242188 240.132812 -4 245.375 -3.71875 L 245.375 0 L 139.859375 0 C 116.679688 0 97.4375 -2.410156 82.125 -7.234375 C 66.820312 -12.066406 54.34375 -19.722656 44.6875 -30.203125 C 35.863281 -39.304688 29.035156 -50.132812 24.203125 -62.6875 C 19.378906 -75.238281 16.96875 -88.273438 16.96875 -101.796875 C 16.96875 -119.441406 19.863281 -134.953125 25.65625 -148.328125 C 31.445312 -161.710938 39.515625 -172.816406 49.859375 -181.640625 C 60.203125 -190.472656 72.476562 -197.09375 86.6875 -201.5 C 100.894531 -205.914062 116.550781 -208.125 133.65625 -208.125 C 135.582031 -208.125 137.71875 -208.125 140.0625 -208.125 C 142.40625 -208.125 145.300781 -207.984375 148.75 -207.703125 C 152.195312 -207.429688 156.265625 -207.160156 160.953125 -206.890625 C 165.648438 -206.617188 171.445312 -206.207031 178.34375 -205.65625 L 178.34375 -225.921875 C 178.34375 -240.265625 176.410156 -250.953125 172.546875 -257.984375 C 168.679688 -265.023438 162.335938 -268.546875 153.515625 -268.546875 L 153.515625 -272.265625 Z M 220.546875 -283.03125 "/></g></g></g><g fill="#ffffff" fill-opacity="1"><g transform="translate(257.08911, 294.597184)"><g><path d="M 96.40625 5.375 C 96.40625 17.507812 95.507812 29.164062 93.71875 40.34375 C 91.925781 51.519531 87.582031 60.414062 80.6875 67.03125 C 74.34375 72.820312 66.273438 77.71875 56.484375 81.71875 C 46.691406 85.71875 34.207031 87.71875 19.03125 87.71875 C 5.789062 87.71875 -6.753906 85.925781 -18.609375 82.34375 C -30.472656 78.757812 -41.925781 73.65625 -52.96875 67.03125 L -13.234375 16.546875 L -10.765625 17.796875 C -12.140625 20.828125 -13.378906 24 -14.484375 27.3125 C -15.585938 30.625 -16.140625 34.207031 -16.140625 38.0625 C -16.140625 47.445312 -12.757812 54.894531 -6 60.40625 C 0.757812 65.925781 8.550781 68.6875 17.375 68.6875 C 25.65625 68.6875 32.207031 67.164062 37.03125 64.125 C 41.863281 61.09375 45.519531 56.890625 48 51.515625 C 50.476562 46.140625 52.128906 39.585938 52.953125 31.859375 C 53.785156 24.140625 54.203125 15.726562 54.203125 6.625 L 54.203125 -151.859375 C 54.203125 -163.441406 52.6875 -173.234375 49.65625 -181.234375 C 46.625 -189.234375 39.863281 -193.785156 29.375 -194.890625 L 29.375 -198.609375 L 96.40625 -204 Z M 46.75 -262.75 C 46.75 -271.03125 49.234375 -278.203125 54.203125 -284.265625 C 59.171875 -290.335938 66.066406 -293.375 74.890625 -293.375 C 82.890625 -293.375 89.507812 -290.40625 94.75 -284.46875 C 100 -278.539062 102.625 -271.71875 102.625 -264 C 102.625 -256.269531 100.140625 -249.160156 95.171875 -242.671875 C 90.203125 -236.191406 83.71875 -232.953125 75.71875 -232.953125 C 67.445312 -232.953125 60.550781 -235.847656 55.03125 -241.640625 C 49.507812 -247.441406 46.75 -254.476562 46.75 -262.75 Z M 46.75 -262.75 "/></g></g></g><g fill="#ffffff" fill-opacity="1"><g transform="translate(389.491444, 294.597184)"><g/></g></g></g></g><g clip-path="url(#650b006418)"><g clip-path="url(#e83a623cd2)"><g transform="matrix(1, 0, 0, 1, 448, 198)"><g clip-path="url(#af7c178cc1)"><g clip-path="url(#d4dc70bcf3)"><g clip-path="url(#c6b6c6b9c6)"><path fill="#000000" d="M 0.824219 0.460938 L 103.4375 0.460938 L 103.4375 103.074219 L 0.824219 103.074219 Z M 0.824219 0.460938 " fill-opacity="1" fill-rule="nonzero"/></g></g></g></g></g></g><path fill="#ffffff" d="M 497.859375 158.703125 C 490.070312 156.535156 485.496094 148.433594 487.667969 140.644531 C 488.753906 136.742188 486.472656 132.703125 482.574219 131.617188 C 478.671875 130.527344 474.628906 132.808594 473.542969 136.710938 L 450.214844 220.5 C 446.707031 216.898438 442.246094 214.140625 437.0625 212.699219 C 421.429688 208.347656 405.175781 217.519531 400.820312 233.152344 C 396.46875 248.78125 405.644531 265.035156 421.273438 269.390625 C 436.90625 273.742188 453.160156 264.566406 457.511719 248.9375 L 480.855469 165.09375 C 484.34375 168.664062 488.777344 171.394531 493.921875 172.828125 C 501.710938 174.992188 506.285156 183.097656 504.113281 190.882812 C 503.027344 194.785156 505.308594 198.824219 509.210938 199.914062 C 513.113281 201 517.152344 198.71875 518.238281 194.816406 C 522.582031 179.242188 513.4375 163.039062 497.859375 158.703125 Z M 497.859375 158.703125 " fill-opacity="1" fill-rule="nonzero"/><path fill="#ffffff" d="M 500.148438 226.730469 C 495.289062 227.964844 490.335938 225.011719 489.101562 220.152344 C 488.484375 217.71875 486.011719 216.246094 483.578125 216.863281 C 481.144531 217.480469 479.671875 219.953125 480.289062 222.386719 L 493.546875 274.664062 C 490.550781 273.804688 487.300781 273.703125 484.066406 274.519531 C 474.316406 276.992188 468.394531 286.941406 470.867188 296.691406 C 473.339844 306.441406 483.285156 312.363281 493.039062 309.890625 C 502.789062 307.414062 508.710938 297.46875 506.238281 287.71875 L 492.972656 235.402344 C 495.949219 236.25 499.175781 236.355469 502.382812 235.542969 C 507.242188 234.308594 512.199219 237.261719 513.433594 242.121094 C 514.050781 244.550781 516.523438 246.027344 518.957031 245.410156 C 521.386719 244.792969 522.863281 242.316406 522.246094 239.886719 C 519.78125 230.164062 509.867188 224.265625 500.148438 226.730469 Z M 500.148438 226.730469 " fill-opacity="1" fill-rule="nonzero"/><g transform="matrix(1, 0, 0, 1, 592, 221)"><g clip-path="url(#9b2ff38e18)"><g clip-path="url(#50f95dcd13)"><g fill="#ffffff" fill-opacity="1"><g transform="translate(0.26818, 283.695763)"><g><path d="M 135.71875 -188.265625 C 123.582031 -187.710938 112.894531 -185.019531 103.65625 -180.1875 C 94.414062 -175.363281 86.691406 -169.019531 80.484375 -161.15625 C 74.273438 -153.300781 69.582031 -144.203125 66.40625 -133.859375 C 63.238281 -123.515625 61.65625 -112.550781 61.65625 -100.96875 C 61.65625 -85.789062 64.34375 -72.890625 69.71875 -62.265625 C 75.101562 -51.648438 82.273438 -43.03125 91.234375 -36.40625 C 100.203125 -29.789062 110.335938 -24.960938 121.640625 -21.921875 C 132.953125 -18.890625 144.40625 -17.375 156 -17.375 C 162.894531 -17.375 170.34375 -18.34375 178.34375 -20.28125 L 178.34375 -146.484375 C 178.34375 -153.097656 177.789062 -159.09375 176.6875 -164.46875 C 175.582031 -169.851562 173.441406 -174.335938 170.265625 -177.921875 C 167.097656 -181.515625 162.753906 -184.207031 157.234375 -186 C 151.722656 -187.789062 144.550781 -188.546875 135.71875 -188.265625 Z M 220.546875 -283.03125 L 220.546875 -46.34375 C 220.546875 -40 220.890625 -34.34375 221.578125 -29.375 C 222.265625 -24.414062 223.503906 -20.070312 225.296875 -16.34375 C 227.097656 -12.625 229.582031 -9.660156 232.75 -7.453125 C 235.925781 -5.242188 240.132812 -4 245.375 -3.71875 L 245.375 0 L 139.859375 0 C 116.679688 0 97.4375 -2.410156 82.125 -7.234375 C 66.820312 -12.066406 54.34375 -19.722656 44.6875 -30.203125 C 35.863281 -39.304688 29.035156 -50.132812 24.203125 -62.6875 C 19.378906 -75.238281 16.96875 -88.273438 16.96875 -101.796875 C 16.96875 -119.441406 19.863281 -134.953125 25.65625 -148.328125 C 31.445312 -161.710938 39.515625 -172.816406 49.859375 -181.640625 C 60.203125 -190.472656 72.476562 -197.09375 86.6875 -201.5 C 100.894531 -205.914062 116.550781 -208.125 133.65625 -208.125 C 135.582031 -208.125 137.71875 -208.125 140.0625 -208.125 C 142.40625 -208.125 145.300781 -207.984375 148.75 -207.703125 C 152.195312 -207.429688 156.265625 -207.160156 160.953125 -206.890625 C 165.648438 -206.617188 171.445312 -206.207031 178.34375 -205.65625 L 178.34375 -225.921875 C 178.34375 -240.265625 176.410156 -250.953125 172.546875 -257.984375 C 168.679688 -265.023438 162.335938 -268.546875 153.515625 -268.546875 L 153.515625 -272.265625 Z M 220.546875 -283.03125 "/></g></g></g></g><g fill="#ffffff" fill-opacity="1"><g transform="translate(256.792333, 283.695763)"><g><path d="M 158.890625 -118.75 C 149.234375 -116.539062 138.679688 -113.644531 127.234375 -110.0625 C 115.785156 -106.476562 105.234375 -101.859375 95.578125 -96.203125 C 85.921875 -90.546875 77.851562 -83.925781 71.375 -76.34375 C 64.894531 -68.757812 61.65625 -59.863281 61.65625 -49.65625 C 61.65625 -40 64.960938 -32.476562 71.578125 -27.09375 C 78.203125 -21.71875 86.066406 -19.03125 95.171875 -19.03125 C 107.585938 -19.03125 117.863281 -21.515625 126 -26.484375 C 134.132812 -31.453125 140.679688 -37.796875 145.640625 -45.515625 C 150.609375 -53.242188 154.054688 -61.929688 155.984375 -71.578125 C 157.921875 -81.234375 158.890625 -90.613281 158.890625 -99.71875 Z M 65.796875 -195.71875 C 71.859375 -197.644531 77.578125 -199.4375 82.953125 -201.09375 C 88.335938 -202.75 93.648438 -204.0625 98.890625 -205.03125 C 104.128906 -206 109.578125 -206.753906 115.234375 -207.296875 C 120.890625 -207.847656 127.03125 -208.125 133.65625 -208.125 C 145.238281 -208.125 155.375 -207.160156 164.0625 -205.234375 C 172.75 -203.304688 180.054688 -199.859375 185.984375 -194.890625 C 191.921875 -189.921875 196.335938 -183.019531 199.234375 -174.1875 C 202.128906 -165.363281 203.578125 -154.195312 203.578125 -140.6875 L 203.578125 -56.28125 C 203.578125 -49.65625 203.921875 -43.445312 204.609375 -37.65625 C 205.304688 -31.863281 206.6875 -26.691406 208.75 -22.140625 C 210.820312 -17.585938 213.785156 -13.722656 217.640625 -10.546875 C 221.503906 -7.378906 226.609375 -5.101562 232.953125 -3.71875 L 232.953125 0 L 176.265625 0 C 172.128906 -5.519531 168.890625 -11.3125 166.546875 -17.375 C 164.203125 -23.445312 162.753906 -30.066406 162.203125 -37.234375 C 158.066406 -29.785156 152.960938 -23.441406 146.890625 -18.203125 C 140.828125 -12.960938 134.207031 -8.6875 127.03125 -5.375 C 119.851562 -2.0625 112.195312 0.347656 104.0625 1.859375 C 95.925781 3.378906 87.859375 4.140625 79.859375 4.140625 C 70.484375 4.140625 61.796875 3.101562 53.796875 1.03125 C 45.796875 -1.03125 38.894531 -4.128906 33.09375 -8.265625 C 27.300781 -12.410156 22.75 -17.515625 19.4375 -23.578125 C 16.132812 -29.648438 14.484375 -36.550781 14.484375 -44.28125 C 14.484375 -57.238281 17.859375 -68.40625 24.609375 -77.78125 C 31.367188 -87.164062 41.023438 -95.375 53.578125 -102.40625 C 66.128906 -109.445312 81.300781 -115.585938 99.09375 -120.828125 C 116.894531 -126.066406 136.828125 -131.03125 158.890625 -135.71875 C 159.171875 -144.269531 158.828125 -151.648438 157.859375 -157.859375 C 156.890625 -164.066406 154.890625 -169.171875 151.859375 -173.171875 C 148.828125 -177.171875 144.550781 -180.132812 139.03125 -182.0625 C 133.507812 -183.988281 126.195312 -184.953125 117.09375 -184.953125 C 96.957031 -184.953125 79.234375 -180.054688 63.921875 -170.265625 C 48.617188 -160.472656 36.96875 -146.613281 28.96875 -128.6875 L 35.578125 -196.546875 C 38.066406 -194.890625 40.207031 -193.578125 42 -192.609375 C 43.789062 -191.648438 45.789062 -191.171875 48 -191.171875 C 50.207031 -191.171875 52.757812 -191.582031 55.65625 -192.40625 C 58.550781 -193.238281 61.929688 -194.34375 65.796875 -195.71875 Z M 65.796875 -195.71875 "/></g></g></g><g fill="#ffffff" fill-opacity="1"><g transform="translate(488.491588, 283.695763)"><g><path d="M 127.03125 -188.265625 C 115.71875 -188.265625 105.921875 -186.125 97.640625 -181.84375 C 89.367188 -177.570312 82.613281 -171.78125 77.375 -164.46875 C 72.132812 -157.164062 68.269531 -148.6875 65.78125 -139.03125 C 63.300781 -129.375 62.0625 -119.304688 62.0625 -108.828125 C 62.0625 -98.335938 63.300781 -87.578125 65.78125 -76.546875 C 68.269531 -65.515625 72.203125 -55.515625 77.578125 -46.546875 C 82.960938 -37.585938 89.929688 -30.207031 98.484375 -24.40625 C 107.035156 -18.613281 117.378906 -15.71875 129.515625 -15.71875 C 139.722656 -15.71875 148.828125 -18.0625 156.828125 -22.75 C 164.828125 -27.445312 171.582031 -33.65625 177.09375 -41.375 C 182.613281 -49.101562 186.820312 -57.929688 189.71875 -67.859375 C 192.613281 -77.785156 194.0625 -88.128906 194.0625 -98.890625 C 194.0625 -108.273438 193.023438 -118.207031 190.953125 -128.6875 C 188.890625 -139.164062 185.238281 -148.816406 180 -157.640625 C 174.757812 -166.472656 167.863281 -173.785156 159.3125 -179.578125 C 150.757812 -185.367188 140 -188.265625 127.03125 -188.265625 Z M 14.890625 -100.546875 C 14.890625 -117.097656 17.851562 -132.0625 23.78125 -145.4375 C 29.71875 -158.820312 37.859375 -170.132812 48.203125 -179.375 C 58.546875 -188.613281 70.679688 -195.710938 84.609375 -200.671875 C 98.546875 -205.640625 113.648438 -208.125 129.921875 -208.125 C 145.648438 -208.125 160.269531 -205.847656 173.78125 -201.296875 C 187.300781 -196.753906 199.023438 -190.132812 208.953125 -181.4375 C 218.890625 -172.75 226.753906 -161.921875 232.546875 -148.953125 C 238.335938 -135.992188 241.234375 -121.238281 241.234375 -104.6875 C 241.234375 -87.582031 238.195312 -72.269531 232.125 -58.75 C 226.0625 -45.238281 217.859375 -33.863281 207.515625 -24.625 C 197.171875 -15.382812 184.960938 -8.28125 170.890625 -3.3125 C 156.816406 1.65625 141.785156 4.140625 125.796875 4.140625 C 110.066406 4.140625 95.441406 1.726562 81.921875 -3.09375 C 68.410156 -7.925781 56.6875 -14.820312 46.75 -23.78125 C 36.820312 -32.75 29.03125 -43.71875 23.375 -56.6875 C 17.71875 -69.65625 14.890625 -84.273438 14.890625 -100.546875 Z M 14.890625 -100.546875 "/></g></g></g></g></g></svg>